<svg xmlns="http://www.w3.org/2000/svg" width="81.333" height="81.333" viewBox="0 0 81.333 81.333">
  <g id="Grupo_43" data-name="Grupo 43" transform="translate(-642.951 -1996.958)">
    <circle id="Elipse_3" data-name="Elipse 3" cx="40" cy="40" r="40" transform="translate(643.617 1997.625)" fill="#eb3d00" stroke="#fff" stroke-miterlimit="10" stroke-width="1.333"/>
    <path id="Trazado_26" data-name="Trazado 26" d="M679.374,2052.82a20.118,20.118,0,0,1,0-28.453,1.04,1.04,0,0,1,1.287-.146l3.924,2.453a1.038,1.038,0,0,1,.415,1.268l-1.962,4.906a1.04,1.04,0,0,1-1.07.649l-3.379-.338a16.08,16.08,0,0,0,0,10.869l3.379-.338a1.041,1.041,0,0,1,1.07.649l1.962,4.906a1.039,1.039,0,0,1-.415,1.269l-3.924,2.453A1.039,1.039,0,0,1,679.374,2052.82Zm9.069-24.914a3.878,3.878,0,0,1,0,3.938.729.729,0,0,1-1.133.157l-.362-.347a.732.732,0,0,1-.137-.872,1.94,1.94,0,0,0,0-1.814.732.732,0,0,1,.137-.872l.362-.347A.729.729,0,0,1,688.443,2027.906Zm5.557-5.522a11.64,11.64,0,0,1,0,14.981.728.728,0,0,1-1.062.057l-.351-.336a.729.729,0,0,1-.057-.992,9.7,9.7,0,0,0,0-12.438.729.729,0,0,1,.057-.992l.351-.336a.729.729,0,0,1,1.062.056Zm-2.783,2.722a7.76,7.76,0,0,1,0,9.538.729.729,0,0,1-1.081.079l-.352-.337a.726.726,0,0,1-.078-.965,5.822,5.822,0,0,0,0-7.092.726.726,0,0,1,.078-.965l.352-.337a.729.729,0,0,1,1.081.079Z" fill="#fff"/>
  </g>
</svg>
