<svg xmlns="http://www.w3.org/2000/svg" width="81.333" height="81.333" viewBox="0 0 81.333 81.333">
  <g id="Grupo_174" data-name="Grupo 174" transform="translate(-924.091 -1996.958)">
    <circle id="Elipse_4" data-name="Elipse 4" cx="40" cy="40" r="40" transform="translate(924.758 1997.625)" fill="#eb3d00" stroke="#fff" stroke-miterlimit="10" stroke-width="1.333"/>
    <path id="Trazado_27" data-name="Trazado 27" d="M976.972,2022.429l-27.84,16.084a1.443,1.443,0,0,0,.134,2.6l6.389,2.676,17.253-15.224a.36.36,0,0,1,.517.5L958.961,2046.7l0,4.837a1.441,1.441,0,0,0,2.554.947l3.813-4.646,7.488,3.131a1.446,1.446,0,0,0,1.983-1.094l4.31-25.96A1.443,1.443,0,0,0,976.972,2022.429Z" fill="#fff"/>
  </g>
</svg>
