<svg xmlns="http://www.w3.org/2000/svg" width="81.333" height="81.333" viewBox="0 0 81.333 81.333">
  <g id="Grupo_41" data-name="Grupo 41" transform="translate(-319.81 -1996.958)">
    <circle id="Elipse_2" data-name="Elipse 2" cx="40" cy="40" r="40" transform="translate(320.477 1997.625)" fill="#eb3d00" stroke="#fff" stroke-miterlimit="10" stroke-width="1.333"/>
    <path id="Trazado_25" data-name="Trazado 25" d="M378.645,2043.362h-.956v-6.46a2.869,2.869,0,0,0-.843-2.026l-5.97-5.971a2.867,2.867,0,0,0-2.026-.842h-2.636v-2.869a2.87,2.87,0,0,0-2.869-2.869H344.22a2.869,2.869,0,0,0-2.868,2.869v19.125a2.869,2.869,0,0,0,2.868,2.869h.957a5.738,5.738,0,0,0,11.475,0h7.65a5.738,5.738,0,0,0,11.475,0h2.868a.96.96,0,0,0,.957-.957v-1.912A.96.96,0,0,0,378.645,2043.362Zm-27.731,6.694a2.868,2.868,0,1,1,2.869-2.868A2.869,2.869,0,0,1,350.914,2050.056Zm19.125,0a2.868,2.868,0,1,1,2.869-2.868A2.869,2.869,0,0,1,370.039,2050.056Zm4.781-12.431h-8.606v-6.694h2.636l5.97,5.971Z" fill="#fff"/>
  </g>
</svg>
