<svg xmlns="http://www.w3.org/2000/svg" viewBox="0 0 178.6 48.25"><defs><style>.cls-1{fill:#252425;}.cls-2{fill:#fff;}.cls-3{fill:#df0024;}</style></defs><g id="Capa_2" data-name="Capa 2"><g id="Capa_1-2" data-name="Capa 1"><path class="cls-1" d="M1,48.05c-.71,0-.79-.08-.79-.78V1C.2.29.28.2,1,.2H47.62A.44.44,0,0,1,48,.3c.1.11.1.24.1.47V47.49c0,.22,0,.36-.1.46a.45.45,0,0,1-.36.11Z"/><path class="cls-2" d="M47.62.39c.32,0,.26.06.26.6V47.26c0,.55.07.6-.26.6H1c-.6,0-.6,0-.6-.59V1C.39.4.39.4,1,.4H47.62m0-.39H1C.17,0,0,.18,0,1V47.27c0,.81.18,1,1,1H47.62a.65.65,0,0,0,.5-.16.7.7,0,0,0,.15-.6V.78a.77.77,0,0,0-.15-.62.66.66,0,0,0-.5-.16Z"/><path class="cls-2" d="M80,41.54a13.34,13.34,0,0,1-2.33,2.36A15,15,0,0,1,70.11,47a17.39,17.39,0,0,1-7.42-.56,13.68,13.68,0,0,1-9.58-10.18,14.48,14.48,0,0,1,.43-9.15,14.07,14.07,0,0,1,10-8.83A16.36,16.36,0,0,1,74.2,19a13.63,13.63,0,0,1,5.47,4.18c.08.1.15.21.24.31s.06.2,0,.28c-.63.47-1.25.95-1.87,1.43-.13.11-.22.1-.32,0s-.23-.28-.35-.41a12,12,0,0,0-8.2-4.2A12.46,12.46,0,0,0,60.25,23a11.11,11.11,0,0,0-4.52,7.62,11.86,11.86,0,0,0,1.17,7.52,11.58,11.58,0,0,0,8.37,6.11,13.26,13.26,0,0,0,7.55-.67,12.72,12.72,0,0,0,4.5-3.16,3.18,3.18,0,0,0,.3-.33c.12-.16.22-.18.4,0C78.66,40.52,79.32,41,80,41.54Z"/><path class="cls-2" d="M104.68,33.53l.47-.54A7,7,0,0,1,109,30.65a6,6,0,0,1,3.38.19,5.33,5.33,0,0,1,3.49,4.32,17.76,17.76,0,0,1,.24,3.26c0,2.51,0,5,0,7.5V46c0,.43,0,.43-.44.43s-.85,0-1.27,0c-.2,0-.31-.05-.29-.27s0-.23,0-.35c0-2.61,0-5.23,0-7.84a11.77,11.77,0,0,0-.2-2.44c-.52-2.51-2.32-3.37-4.49-3.15A5.5,5.5,0,0,0,104.78,37a19.74,19.74,0,0,0-.18,2.44q0,3.21,0,6.42v.34c0,.15-.07.21-.21.21h-1.57c-.16,0-.24-.07-.23-.24V31.26c0-.36,0-.36.38-.36s.88,0,1.33,0c.23,0,.31.07.3.3,0,.61,0,1.21,0,1.82v.48Z"/><path class="cls-2" d="M148.48,35.8V31.29c0-.39,0-.39.41-.4h1.37c.19,0,.27.07.25.26s0,.23,0,.34q0,3.6,0,7.2a15.41,15.41,0,0,0,.16,2.54,4.08,4.08,0,0,0,3.09,3.43,5.46,5.46,0,0,0,3,0,4.17,4.17,0,0,0,3.12-3.79c.08-1,.1-2,.1-3V31.48c0-.12,0-.23,0-.35s0-.24.22-.24h1.62c.17,0,.22.09.21.24v.2c0,2.53,0,5.06,0,7.6a13.63,13.63,0,0,1-.36,3.3,5.85,5.85,0,0,1-5.27,4.54,9.35,9.35,0,0,1-3.21-.17,5.68,5.68,0,0,1-4.38-4.41,15.29,15.29,0,0,1-.37-3.7C148.47,37.6,148.48,36.7,148.48,35.8Z"/><path class="cls-2" d="M119.79,43.27l.51.49a4.12,4.12,0,0,0,2.52,1.2,2.92,2.92,0,0,0,2.56-1.08,2.34,2.34,0,0,0-.28-3.3,10.14,10.14,0,0,0-2-1.28,12.83,12.83,0,0,1-2.28-1.43,4,4,0,0,1-1.41-2.13,4.12,4.12,0,0,1,4.67-5.2,6.54,6.54,0,0,1,3.57,1.9c.14.13.16.22,0,.35l-1.15,1.09-.63-.53a4.27,4.27,0,0,0-2-.94,2.38,2.38,0,0,0-2.26.77,2,2,0,0,0-.32,2.23,2.94,2.94,0,0,0,.91,1.07,13.05,13.05,0,0,0,1.93,1.17,12,12,0,0,1,2.36,1.57,3.88,3.88,0,0,1,1.32,2.49,4.5,4.5,0,0,1-3.73,5,5.85,5.85,0,0,1-5-1.48c-.16-.14-.29-.3-.44-.46s-.08-.18,0-.29Z"/><path class="cls-1" d="M47.88,24.18V47.26c0,.69.11.6-.6.6H1c-.6,0-.6,0-.6-.59V1C.39.4.39.4,1,.4h46.3c.69,0,.6-.1.6.59Z"/><path class="cls-2" d="M134.64,39.54v6.67c0,.16,0,.24-.22.24h-1.57c-.15,0-.21-.07-.21-.21V33.1c0-.48,0-.48-.47-.48H130.3c-.38,0-.38,0-.39-.36v-1c0-.37,0-.37.37-.38h2c.4,0,.4,0,.4-.39V25.59c0-.45,0-.42.42-.42s.82,0,1.23,0,.35,0,.35.35V29.1c0,.49,0,1,0,1.47,0,.25.07.34.32.33h2.46c.37,0,.4-.07.4.4s0,.68,0,1-.09.3-.32.3c-.77,0-1.53,0-2.3,0h-.35c-.13,0-.21,0-.21.2v6.71Z"/><path class="cls-2" d="M172.8,33.1c.36-.43.63-.78.93-1.1a4.59,4.59,0,0,1,2.4-1.42,3.37,3.37,0,0,1,2.47.46l-.92,1.51a.22.22,0,0,1-.32.11,2.66,2.66,0,0,0-3.18,1.07A5.73,5.73,0,0,0,173,36.84a35.9,35.9,0,0,0-.19,4.4V46c0,.4,0,.41-.4.41s-.92,0-1.37,0c-.22,0-.31-.07-.29-.28a2.08,2.08,0,0,0,0-.25V31.42c0-.59-.07-.52.52-.53h1.18c.35,0,.35,0,.35.35C172.8,31.82,172.8,32.4,172.8,33.1Z"/><path class="cls-2" d="M141.68,33.1a9.65,9.65,0,0,1,1.16-1.36,5,5,0,0,1,1.56-1,3.32,3.32,0,0,1,3,.31l-.94,1.54c-.08.13-.18.1-.29.07a2.84,2.84,0,0,0-3.32,1.22,6.24,6.24,0,0,0-1,2.63,33.27,33.27,0,0,0-.22,4.79c0,1.55,0,3.1,0,4.66,0,.56,0,.49-.52.49s-.82,0-1.23,0c-.24,0-.32-.09-.3-.32a1.92,1.92,0,0,0,0-.24V31.44c0-.64-.07-.54.55-.54h.93c.62,0,.56-.09.56.53v1.23C141.65,32.77,141.67,32.87,141.68,33.1Z"/><path class="cls-2" d="M167.78,38.69v7.49c0,.18-.05.28-.24.27H166c-.18,0-.27-.07-.26-.26a2.81,2.81,0,0,0,0-.29V31.45c0-.63-.06-.55.55-.55h1.22c.19,0,.28.06.26.25s0,.23,0,.35Z"/><path class="cls-2" d="M84,7l-1,.63c0-.07-.08-.12-.12-.18A4.44,4.44,0,0,0,78,6.18a3.89,3.89,0,0,0-2.66,3.88,4,4,0,0,0,3.2,3.67,4.35,4.35,0,0,0,4.27-1.37c.18-.21.31-.21.52-.06s.43.3.64.44c0,.17-.11.25-.18.35a5,5,0,0,1-3,1.79,6,6,0,0,1-2.91-.08A4.88,4.88,0,0,1,74.13,11a5.12,5.12,0,0,1,3.94-6,6.08,6.08,0,0,1,4.15.48A4.09,4.09,0,0,1,84,7Z"/><path class="cls-2" d="M61,2.42l-.74-.21a1.56,1.56,0,0,0-.68,0A.75.75,0,0,0,58.9,3c0,.6,0,1.2,0,1.81,0,.18.07.23.24.22h1.47c.33,0,.33,0,.34.36,0,.72,0,.72-.72.72-.34,0-.68,0-1,0s-.31.07-.3.3c0,.69,0,1.38,0,2.07v5.88c0,.43,0,.44-.42.44s-.62.12-.8-.08,0-.51,0-.76V6.38c0-.25-.09-.31-.31-.3s-.49,0-.74,0-.22,0-.24-.22C56.26,5,56.25,5,57.1,5h.25c.22,0,.27-.1.26-.29,0-.48,0-.95,0-1.43a4.11,4.11,0,0,1,.07-.78A1.65,1.65,0,0,1,59.17,1a4.26,4.26,0,0,1,1.7.17c.14,0,.17.12.17.25Z"/><path class="cls-2" d="M90.22,8v6.18c0,.11,0,.22,0,.34s-.08.24-.27.26c-1,.08-1,.08-1-.91V1.6c0-.36,0-.36.39-.37.18,0,.36,0,.54,0s.32.1.32.34c0,1.23,0,2.45,0,3.67Z"/><path class="cls-2" d="M87,9.9v4.46c0,.4,0,.4-.4.41H86c-.16,0-.24-.08-.23-.24s0-.2,0-.3V5.52c0-.1,0-.2,0-.3S85.85,5,86,5c1-.09,1-.09,1,.94Z"/><path class="cls-2" d="M168.42,26.16a1.65,1.65,0,1,1-1.65-1.64A1.65,1.65,0,0,1,168.42,26.16Z"/><path class="cls-2" d="M69.64.44c0,.19-.12.25-.19.33-.69.72-1.39,1.43-2.07,2.15a.73.73,0,0,1-.64.28c-.25,0-.51,0-.75,0a.28.28,0,0,1,.1-.31c.51-.72,1-1.43,1.53-2.16a.59.59,0,0,1,.57-.29C68.67.46,69.15.44,69.64.44Z"/><path class="cls-2" d="M87.44,2a1,1,0,1,1-1-1h0A1,1,0,0,1,87.44,2Z"/><path class="cls-2" d="M91.26,30.48a8.18,8.18,0,0,0-8.12,8.25,8.11,8.11,0,1,0,16.21,0A8.21,8.21,0,0,0,91.26,30.48Zm1.08,14.39a5.94,5.94,0,0,1-7.07-5.19,6.08,6.08,0,0,1,2.84-6.28,5.47,5.47,0,0,1,6.32,0,6.3,6.3,0,0,1-2.09,11.44Z"/><path class="cls-3" d="M47.59,24.12V47c0,.66.06.6-.61.6H1.22c-.57,0-.53,0-.53-.53V1C.68.78.76.69,1,.7s.23,0,.34,0H47.05c.57,0,.54,0,.54.53Z"/><path class="cls-2" d="M106.8,2.08c0-1,.2-.84-.89-.85-.33,0-.34,0-.34.37V6.76l-.29-.34A4.76,4.76,0,0,0,99.8,5.11a5.1,5.1,0,0,0-3.16,4.57A5.05,5.05,0,0,0,98,13.43a4.92,4.92,0,0,0,7.1.14c.13-.13.22-.31.45-.36v.86c0,.69,0,.69.7.69s.53,0,.53-.53C106.8,10.18,106.81,6.13,106.8,2.08Zm-5.15,11.74a3.92,3.92,0,0,1-3.74-4.05,3.87,3.87,0,1,1,7.74.19A3.83,3.83,0,0,1,101.65,13.82Z"/><path class="cls-2" d="M110.57,10h7.8c.41,0,.41,0,.39-.4a4.92,4.92,0,0,0-5.2-4.8,4.76,4.76,0,0,0-4.26,2.68,5.11,5.11,0,0,0-.59,2.69,4.93,4.93,0,0,0,4.2,4.81,5,5,0,0,0,5.53-2.86,3.47,3.47,0,0,0-.33-.18c-.23-.1-.45-.36-.69-.3s-.31.36-.44.56a4,4,0,0,1-4.25,1.55,3.61,3.61,0,0,1-2.68-3.12C109.94,10,109.94,10,110.57,10Zm-.37-1.35A4,4,0,0,1,111.12,7a3.6,3.6,0,0,1,3.71-.9,3.36,3.36,0,0,1,2.52,2.66s0,0,0,.12h-6.62a2.8,2.8,0,0,0-.29,0C110.19,8.89,110.14,8.79,110.2,8.61Z"/><path class="cls-2" d="M72.12,14.5c0-.1,0-.2,0-.3V5.53a2.81,2.81,0,0,1,0-.29c0-.16-.05-.25-.22-.24h-.79c-.19,0-.25.07-.25.26,0,.45,0,.9,0,1.43l-.12-.08-.22-.26A4.62,4.62,0,0,0,66,4.86a5.16,5.16,0,0,0-4,4.32,5.24,5.24,0,0,0,3,5.43,4.94,4.94,0,0,0,5.47-1.06c.12-.12.2-.29.41-.34,0,.44,0,.85,0,1.26,0,.2,0,.3.27.3h.74C72.06,14.77,72.13,14.68,72.12,14.5ZM67,13.83A4,4,0,0,1,63.2,9.78a3.88,3.88,0,0,1,3.92-3.84h0A3.84,3.84,0,0,1,71,10,3.84,3.84,0,0,1,67,13.83Z"/><path class="cls-2" d="M41,23.14c-.12-.13-.2-.23-.28-.33a10.27,10.27,0,0,0-7.26-3.91,11.07,11.07,0,0,0-5.8.82,9.55,9.55,0,0,0-5.75,7.09,9.89,9.89,0,0,0,7.59,11.62,11.12,11.12,0,0,0,8.12-1.08,11,11,0,0,0,2.93-2.42l.44-.51L43.28,36a.17.17,0,0,1,.06.28c-.06.09-.13.18-.19.28A12,12,0,0,1,36.46,41a15.16,15.16,0,0,1-9.82-.35,12.14,12.14,0,0,1-7.84-8.94A12.85,12.85,0,0,1,27.72,16.5a14.93,14.93,0,0,1,11.33,1,10.27,10.27,0,0,1,4.2,3.8c.21.32.21.33-.1.52Z"/><path class="cls-2" d="M18,10.28a3,3,0,0,1-.72-.24,6.3,6.3,0,0,0-2.78-.44,2.61,2.61,0,0,0-1.11.37,1.6,1.6,0,0,0-.82,1.26c0,.5-.06,1-.07,1.51,0,1.23,0,2.46,0,3.68,0,.39,0,.4.4.4h4.32c.46,0,.46,0,.47.45V19c0,.54.06.54-.53.53H12.71c-.19,0-.26.07-.26.26,0,.36,0,.72,0,1.08l0,20.14v.15c0,.42,0,.43-.43.43H9.65c-.42,0-.42,0-.42-.44v-21c0-.62.09-.58-.57-.58H6.3c-.24,0-.35-.06-.34-.33,0-.7,0-1.41,0-2.11,0-.27.11-.33.35-.32h2.5c.41,0,.42,0,.42-.44v-4A12.51,12.51,0,0,1,9.45,10a4,4,0,0,1,3.09-3.19A7.18,7.18,0,0,1,15.8,6.7a15.51,15.51,0,0,1,1.91.43c.16,0,.26.1.25.29Z"/></g></g></svg>