<svg id="Capa_1" data-name="Capa 1" xmlns="http://www.w3.org/2000/svg" viewBox="0 0 3656.29 1000.15"><defs><style>.cls-1{fill:#222;}.cls-2{fill:#252425;}.cls-3{fill:#df0024;}.cls-4{fill:#df0125;}.cls-5{fill:#fff;}</style></defs><path class="cls-1" d="M1634.8,855a264.58,264.58,0,0,1-47.59,48.06c-45.41,35.57-97.06,56-154.22,62.87-51.19,6.12-102,4.19-151.33-11.42-103.38-32.73-168.06-103.36-195.27-207.43-16.36-62.6-15.16-126,8.88-186.57,37.38-94.2,106.54-154.93,204.66-180,73.24-18.72,146.07-14.15,216.34,15.46a276.93,276.93,0,0,1,111.55,85.18c1.65,2.09,3.13,4.32,4.84,6.36,2,2.41,1.22,4-1,5.7q-19.11,14.49-38.08,29.17c-2.72,2.12-4.53,2-6.57-.76-2.16-3-4.55-5.74-7-8.51-44.22-51-100.08-79.14-167.19-85.52-66.44-6.31-127.08,9.27-180.74,49.05-52.29,38.76-83,91-92.23,155.41-7.62,53.4-2.16,105.29,23.89,153.22,37,68.11,94.08,110.15,170.5,124.53,52.46,9.87,104.11,6.55,154.07-13.67,35.51-14.38,65.54-36.58,91.69-64.3a82.35,82.35,0,0,0,6-6.68c2.47-3.27,4.63-3.79,8.14-1.06C1607.3,834.33,1620.64,844.27,1634.8,855Z"/><path class="cls-1" d="M1863.89,963c-102.6,1.22-165.23-84.45-165.35-165.35-.13-89.06,70.54-168.16,165.58-168,98.1.19,164.79,83.37,164.85,167.65C2029,872.66,1970.29,964.2,1863.89,963Z"/><path class="cls-1" d="M2137.61,691.75c3.21-3.68,6.38-7.39,9.63-11,21.36-24,46.92-41.21,78.84-47.79,23.29-4.81,46.51-4.48,68.89,4,40.58,15.46,63.39,45.67,71.18,87.91,4.07,22,4.93,44.33,5,66.64.21,51,.07,101.92.07,152.88,0,.67,0,1.34,0,2-.12,8.63-.12,8.67-8.83,8.72s-17.34-.11-26,.06c-4.12.09-6.34-1.15-5.93-5.66.21-2.31,0-4.66,0-7q-.08-79.93-.18-159.88c0-16.65-.59-33.3-4-49.69-10.58-51.25-47.28-68.69-91.57-64.19-49.72,5-89.26,49.65-95.05,94.44a398.82,398.82,0,0,0-3.61,49.77q-.21,65.44-.23,130.9c0,2.33-.08,4.66,0,7,.08,2.95-1.39,4.23-4.22,4.23-10.66,0-21.33,0-32,0-3.39,0-4.88-1.47-4.78-4.8.07-2.33,0-4.66,0-7V649.55c0-1.33,0-2.66,0-4,.16-7.4.16-7.46,7.82-7.52,9-.07,18,.21,27-.1,4.76-.17,6.41,1.34,6.29,6.21-.3,12.31-.1,24.64-.1,37V691Z"/><path class="cls-1" d="M3030.57,738q0-46,0-91.91c0-8,.1-8,8.22-8.09,9.33-.06,18.66.11,28-.07,3.88-.07,5.47,1.38,5.16,5.23-.18,2.32,0,4.66,0,7q0,73.43.06,146.86c0,17.32.56,34.63,3.42,51.75,6.12,36.66,28.14,59.37,63,69.88,20.51,6.18,41.51,5.89,62.15.18,36.53-10.11,60.22-39.37,63.48-77.21,1.75-20.27,2.11-40.56,2.1-60.87q0-65.44,0-130.87c0-2.33.11-4.67,0-7-.17-3.18.78-5,4.41-4.92q16.49.19,33,0c3.65,0,4.61,1.78,4.4,4.94-.09,1.33,0,2.67,0,4,0,51.61.15,103.23-.13,154.84-.12,22.66-2,45.2-7.46,67.33-12.86,52.17-53.81,87.45-107.41,92.58-22,2.11-43.93,1.93-65.51-3.53-47.71-12.07-77.2-42.44-89.19-89.85-6.25-24.68-7.27-50-7.61-75.33C3030.37,774.66,3030.57,756.34,3030.57,738Z"/><path class="cls-1" d="M2445.65,890.31c3.86,3.68,7.13,6.9,10.51,10,14.6,13.34,31,23,51.27,24.34,21,1.35,38.66-5.59,52.16-21.92,16.94-20.51,14.48-49.76-5.63-67.28-12.38-10.78-26.79-18.5-41.24-26.09-16.22-8.53-32.21-17.4-46.43-29.12-14-11.55-24.09-25.59-28.72-43.35-15.87-60.77,30.89-114.1,95.07-106,29,3.65,51.92,19.44,72.91,38.62,2.85,2.61,3.15,4.49.22,7.19-7.84,7.2-15.53,14.57-23.6,22.18-3.73-3.12-8.2-7-12.86-10.73-12.18-9.63-25.51-16.94-41.07-19.34-18.09-2.79-33.63,2.2-46.07,15.83-11.62,12.74-14,29.9-6.5,45.48,4.29,8.91,10.83,15.89,18.6,21.85,12.19,9.37,25.65,16.66,39.18,23.83,17.1,9.06,33.69,18.87,48.2,31.84a80.37,80.37,0,0,1,27,50.84c6.59,49-27.39,95.59-76.2,102.92-38.06,5.73-71.88-4.48-100.79-30.1-3.23-2.86-6-6.25-9-9.36-2-2.06-1.73-3.78.17-5.88C2430.39,907.68,2437.78,899.2,2445.65,890.31Z"/><path class="cls-2" d="M979.79,501.06q0,235.32,0,470.64c0,13.9,2.18,12.1-12.11,12.11q-471.89,0-943.77,0c-12.09,0-12.1,0-12.1-12V28.51c0-12.18,0-12.18,12-12.18q471.89,0,943.77,0c14.13,0,12.19-1.88,12.19,12.07Q979.83,264.74,979.79,501.06Z"/><path class="cls-1" d="M2748.43,814.3V943.22c0,2.34-.08,4.67,0,7,.13,3.2-1,4.95-4.53,4.92-10.67-.11-21.34-.08-32,0-3,0-4.25-1.36-4.22-4.23,0-2.66,0-5.33,0-8V688c0-1.66,0-3.33,0-5-.05-9.72-.05-9.75-9.71-9.77-12.67,0-25.34,0-38,0-7.79,0-7.85-.12-7.95-7.46-.09-6.66-.06-13.33,0-20,.07-7.63.11-7.72,7.47-7.76,13.33-.06,26.66,0,40,0,8.08,0,8.17-.1,8.17-8.11q.06-50,0-99.95c0-9.24-.68-8.66,8.61-8.66,8.33,0,16.66-.07,25,0,7,.07,7.11.15,7.13,7.07.06,24.32,0,48.64,0,73,0,10,.27,20-.11,30-.19,5.22,1.44,6.9,6.7,6.81,16.66-.28,33.33-.1,50-.11,7.52,0,8.29-1.27,8.23,8.16-.05,7-.23,14,.06,21,.21,5-1.92,6.24-6.54,6.18-15.66-.2-31.33-.08-47-.07-2.34,0-4.67,0-7,0-2.77,0-4.44,1-4.34,4.08.07,2.33,0,4.67,0,7Z"/><path class="cls-1" d="M3526.19,682.92c7.39-8.7,12.89-15.82,19.06-22.31,13.53-14.24,29.24-24.89,48.94-29.09,18-3.83,34.18.32,50.33,9.41-6.38,10.5-12.63,20.66-18.71,30.91-1.68,2.83-3.5,3.32-6.54,2.17-27.54-10.44-48.08,1.63-64.87,21.84-15.07,18.13-21.63,40.2-24.32,63.39-3.45,29.8-3.92,59.74-3.9,89.7q0,48.93,0,97.85c0,8.19-.1,8.25-8.09,8.31-9.33.07-18.65-.13-28,.07-4.34.09-6.13-1.58-5.72-5.86.16-1.65,0-3.32,0-5q0-147.77,0-295.54c0-12-1.49-10.67,10.51-10.75,8-.06,16-.08,24,0,7.09.08,7.19.15,7.24,7C3526.25,656.88,3526.19,668.77,3526.19,682.92Z"/><path class="cls-3" d="M2155.87,146.11V89.77c0-16.32,0-32.64,0-49,0-7.26.16-7.54,6.87-7.46,22.26.29,18.05-3.2,18.1,17.3.2,82.59.08,165.17.08,247.75,0,11.52.88,10.83-10.78,10.85-14.3,0-14.3,0-14.3-14.17V277.47c-4.67,1-6.49,4.83-9.12,7.4C2105.54,325.27,2041.52,324,2002,282c-20.21-21.52-29.09-47.11-28.29-76.49,1.12-40.57,26.75-78.26,64.46-93.08,34.13-13.42,80.67-10.52,111.63,26.78C2151.25,140.92,2152.79,142.59,2155.87,146.11Z"/><path class="cls-1" d="M2891.92,683c8.24-11.21,15.34-20,23.65-27.71,9.36-8.7,19.74-15.79,31.74-20.36,21.35-8.13,41.7-6,62.18,6.19-6.5,10.64-12.91,21-19.21,31.48-1.61,2.68-3.51,2.09-5.94,1.45-28.34-7.39-50.18.53-67.49,24.88-11.38,16-17.86,34.12-20.8,53.46-4.92,32.39-4.44,65.08-4.66,97.7-.22,31.64-.08,63.29,0,94.93,0,11.43-.08,10.09-10.48,10.11-8.34,0-16.68-.26-25,.1-5,.21-6.64-1.75-6.17-6.39.16-1.64,0-3.32,0-5q0-147.39,0-294.79c0-12.89-1.5-10.84,11.16-11q9.49-.13,19,0c12.6.14,11.33-1.77,11.41,10.92.05,8.33,0,16.66,0,25C2891.37,676.16,2891.62,678.38,2891.92,683Z"/><path class="cls-3" d="M2418.12,254.59c-21.42,44.22-62.52,65.67-112.66,58.14-49.1-7.37-84.18-48.2-85.65-98-.57-19.38,2.73-37.83,12.07-54.9,18.74-34.25,47-53.29,86.77-54.51,58.11-1.79,103.29,39.71,106,97.74.37,8.11.37,8.24-8,8.25q-79.5.06-159,0c-12.72,0-12.71,0-10.48,12.87,5.56,32.05,22.91,54.5,54.66,63.45,29.06,8.2,67.09-2.61,86.52-31.52,2.75-4.09,4.42-10.45,8.95-11.49,4.95-1.13,9.4,4.07,14.23,6.17A71.47,71.47,0,0,1,2418.12,254.59Z"/><path class="cls-3" d="M1448.34,144.63c0-10.75.12-20-.06-29.2-.08-3.8,1.2-5.43,5.12-5.27,5.32.21,10.66.18,16,0,3.58-.1,4.71,1.59,4.49,4.86-.13,2,0,4,0,6q0,88.36,0,176.74c0,2-.11,4,0,6,.24,3.68-1.12,5.6-5.08,5.49-5-.13-10-.16-15,0-4.48.17-5.64-2-5.54-6.1.21-8.3.06-16.61.06-25.65-4.29,1.11-6,4.51-8.36,6.86-29.94,29.59-73.68,38.14-111.58,21.69-42.18-18.32-67.32-65.11-61.44-110.76,5.65-43.82,41.88-81.06,81.3-88,36.29-6.41,68,2,93,30.45q2.29,2.63,4.64,5.21A24.11,24.11,0,0,0,1448.34,144.63Z"/><path class="cls-1" d="M3424,796.88v145.8c0,2.33-.13,4.67,0,7,.25,3.69-1,5.54-5.05,5.48-10.32-.14-20.65-.12-31,0-3.79,0-5.55-1.46-5.32-5.3.12-2,0-4,0-6q0-147.3,0-294.6c0-12.79-1.31-11.14,11.09-11.23,8.33-.07,16.66.11,25-.07,3.78-.08,5.57,1.18,5.25,5.13-.19,2.32,0,4.66,0,7Z"/><path class="cls-3" d="M1715.38,151.61,1695,164.31c-1-1.36-1.75-2.45-2.57-3.49-26-32.89-69-36.93-99.73-26.66-33.85,11.3-56.54,44.8-54.06,79.07,2.73,37.85,28.93,68.11,65.11,74.84,34,6.31,63.46-1.92,87-27.95,3.81-4.22,6.5-4.27,10.62-1.1s8.75,6,13.09,8.87c.21,3.45-2.12,5.13-3.65,7.09-15.68,20.1-36.72,31.51-61.26,36.55-19.82,4.07-39.87,4.21-59.4-1.51-40-11.72-66.69-37.36-75.33-78.58-11.72-55.89,24.59-110.65,80.46-123,29.22-6.46,57.6-3.63,84.6,9.87A82.44,82.44,0,0,1,1715.38,151.61Z"/><path class="cls-3" d="M1248.17,57.57c-5.68-1.57-10.46-2.84-15.22-4.22a31.32,31.32,0,0,0-13.87-.73c-9.35,1.55-14.27,6.67-14.62,16.09-.45,12.31-.17,24.64-.39,37-.06,3.57,1.49,4.59,4.78,4.56q15-.15,30,0c6.82.07,6.82.17,7,7.3.33,14.68.33,14.68-14.61,14.68-7,0-14,.26-21-.08-4.82-.24-6.34,1.42-6.25,6.23.26,14,.06,28,0,42q0,59.94,0,119.89c0,8.88-.08,9.13-8.5,9-5.55-.12-12.59,2.55-16.27-1.63-3.16-3.59-1-10.26-1-15.55q-.1-73.43,0-146.86a56.18,56.18,0,0,1,0-7c.64-5.13-1.92-6.24-6.43-6-5,.29-10,0-15,.09-3.27.08-4.55-1-4.84-4.53-1.39-17.48-1.51-17.47,15.83-17.51a43.87,43.87,0,0,1,5,0c4.6.52,5.52-1.88,5.44-5.9-.19-9.65-.08-19.31,0-29a95.54,95.54,0,0,1,1.27-15.91c3.06-17.77,12.83-27.9,30.54-30.68,11.76-1.85,23.19.62,34.54,3.51,2.86.73,3.61,2.5,3.6,5.09C1248.14,43.94,1248.17,50.51,1248.17,57.57Z"/><path class="cls-3" d="M1842.86,171.14V297c0,2.33-.11,4.67,0,7,.2,3.87-1.66,5-5.38,5.29-20,1.59-20,1.69-20-18.6V47.92c0-2.33,0-4.66,0-7,.18-7.45.19-7.48,7.84-7.62,3.67-.07,7.36.27,11-.07,5.48-.51,6.67,2.1,6.64,7-.17,25-.07,49.95-.07,74.93Z"/><path class="cls-4" d="M1778.15,210.15q0,45.42,0,90.84c0,8.1-.11,8.13-8.24,8.25-4.33.06-8.65-.05-13,0-3.32,0-4.86-1.5-4.68-4.85.11-2,0-4,0-6V120.7c0-2,.14-4,0-6-.27-3.58,1.6-4.3,4.79-4.57,21.13-1.74,21.13-1.81,21.13,19.15Z"/><path class="cls-1" d="M3436.91,541.53a33.5,33.5,0,1,1-33.62-33.44A33.55,33.55,0,0,1,3436.91,541.53Z"/><path class="cls-4" d="M1423.29,17.3c0,3.85-2.27,5-3.76,6.57-14.06,14.68-28.32,29.16-42.23,44-3.73,4-7.53,6-13,5.62-5.18-.41-10.41-.09-15.24-.09-1.08-3.47.84-4.76,1.91-6.26,10.37-14.69,21-29.22,31.21-44,3-4.29,6.25-6.16,11.56-5.94C1403.53,17.59,1413.39,17.3,1423.29,17.3Z"/><path class="cls-4" d="M1786.28,49.29a21.09,21.09,0,1,1-20.76-21A21,21,0,0,1,1786.28,49.29Z"/><path class="cls-5" d="M1987.16,794.3c1.94,56-32.5,117-101,128.58-76.93,13.06-135.34-38.57-144.15-105.79-7.12-54.23,12.18-98.2,57.87-127.92,42.06-27.36,86.6-26.78,128.8.56C1966,713.92,1985.48,749.5,1987.16,794.3Z"/><path class="cls-3" d="M973.84,500q0,232.83,0,465.65c0,13.56,1.31,12.35-12.31,12.36H28.74c-11.65-.05-10.86.79-10.86-10.79q0-467.14,0-934.29c0-1.67.09-3.33,0-5-.19-3.76,1.47-5.55,5.3-5.38,2.33.11,4.67,0,7,0H963c11.56,0,10.87-.7,10.87,10.8Z"/><path class="cls-5" d="M2080,129.38c44.48.79,78.48,36.71,77.47,81.86-1,46.13-35.87,79.79-81.54,78.8-42.65-.92-77.11-38.23-76.27-82.59S2035.91,128.6,2080,129.38Z"/><path class="cls-5" d="M2395.21,189.2h-9.94q-62.47,0-125,0c-2,0-4-.09-6,0-4.23.21-5.28-1.74-4-5.52,4.13-12.07,9.39-23.6,18.6-32.68,21.48-21.19,47.45-26.25,75.69-18.42,27.6,7.64,45,26.11,51.42,54.31C2396.08,187.16,2395.82,187.5,2395.21,189.2Z"/><path class="cls-5" d="M1372.59,129.37c45.1.68,78.18,36,77.45,82.73-.7,44.73-35.43,78.46-80.26,78-43.09-.49-78.31-37.92-77.58-82.47A79,79,0,0,1,1372.59,129.37Z"/><path class="cls-5" d="M838.67,480c-2.31-2.76-4-4.77-5.7-6.82q-57.24-70.74-147.84-79.6c-40.85-4-80.81-.67-118.27,16.59C504.36,439,463,486.13,449.54,554.66c-20,101.28,39.61,211.11,154.81,237,57.53,12.92,113.21,7,165.44-22,23-12.72,42.56-29.68,59.8-49.4,2.84-3.24,5.6-6.54,8.95-10.47,16,10.52,31.75,20.9,47.54,31.19,2.45,1.6,3.06,3.29,1.29,5.71-1.37,1.88-2.66,3.83-4,5.7C848.8,799.26,802.66,829.54,747,844.67c-67.22,18.27-134.89,18.92-200.15-7.16-83.53-33.39-140-93.46-159.84-182.22C357.36,522.5,430.74,386.46,568.92,344.5c79.12-24,156.63-17.16,231,19.67,35.79,17.71,64.23,43.72,85.59,77.44,4.15,6.55,4.14,6.68-2.13,10.61C868.72,461.41,854,470.51,838.67,480Z"/><path class="cls-5" d="M369.92,217.72c-5.76-.57-10.09-3.19-14.7-4.82-18.36-6.5-37-11-56.71-9A52.25,52.25,0,0,0,276,211.46c-9.58,5.92-15.53,13.9-16.73,25.66-1,10.31-1.29,20.6-1.39,30.91-.24,25-.17,50-.15,74.94,0,8,.11,8.13,8.29,8.14,29.33.05,58.65,0,88,0,9.39,0,9.44.08,9.48,9.16.06,12,0,24,0,36,0,11.18,1.25,11.05-10.61,11q-41.49-.06-83,0c-2.33,0-4.68.14-7,0-3.8-.26-5.37,1.26-5.28,5.16.18,7.33,0,14.66,0,22l-.33,410.69c0,1,0,2,0,3-.12,8.62-.12,8.69-8.86,8.72q-24,.09-48,0c-8.45,0-8.45-.12-8.53-8.94,0-2,0-4,0-6q0-211.33,0-422.68c0-12.71,1.91-11.89-11.57-11.91-16,0-32-.16-48,.08-5.06.08-7.18-1.31-7.06-6.74q.45-21.48,0-43c-.13-5.54,2.22-6.67,7.08-6.62,17,.19,34,.12,51,.05,8.5,0,8.56-.13,8.57-8.93q.09-40.47.08-80.94a248.9,248.9,0,0,1,4.53-49.65c7.12-35,29.81-55.46,63-65.18,21.86-6.4,44.19-5.14,66.39-1.57a321.2,321.2,0,0,1,38.89,8.87c3.29.95,5.22,2,5.19,5.87C369.85,178.83,369.92,198.07,369.92,217.72Z"/></svg>