<svg xmlns="http://www.w3.org/2000/svg" width="81.333" height="81.333" viewBox="0 0 81.333 81.333">
  <g id="Grupo_175" data-name="Grupo 175" transform="translate(-1358.3 -1996.958)">
    <circle id="Elipse_5" data-name="Elipse 5" cx="40" cy="40" r="40" transform="translate(1358.967 1997.625)" fill="#eb3d00" stroke="#fff" stroke-miterlimit="10" stroke-width="1.333"/>
    <path id="Trazado_28" data-name="Trazado 28" d="M1379.181,2049.716a3.3,3.3,0,0,0,3.3,3.3h32.977a3.3,3.3,0,0,0,3.3-3.3v-12.091h-39.571Zm13.19-4.671a.827.827,0,0,1,.825-.825h9.343a.827.827,0,0,1,.824.825v2.748a.827.827,0,0,1-.824.824H1393.2a.827.827,0,0,1-.825-.824Zm-8.793,0a.827.827,0,0,1,.824-.825h4.946a.827.827,0,0,1,.825.825v2.748a.827.827,0,0,1-.825.824H1384.4a.827.827,0,0,1-.824-.824Zm35.174-19.511v3.3h-39.571v-3.3a3.3,3.3,0,0,1,3.3-3.3h32.977A3.3,3.3,0,0,1,1418.752,2025.534Z" fill="#fff"/>
  </g>
</svg>
